Coordinates
version=1
nRows=12
nColumns=33
inDegrees=yes

Units are S.I. units (second, meters, Newtons, ...)
Angles are in degrees.

endheader
time	ground_thorax_rot_x	ground_thorax_rot_y	ground_thorax_rot_z	ground_thorax_tx	ground_thorax_ty	ground_thorax_tz	clav_prot_r	clav_elev_r	scapula_abduction_r	scapula_elevation_r	scapula_upward_rot_r	scapula_winging_r	shoulder_elv_r	plane_of_elev_r	axial_rot_r	elbow_flexion_r	pro_sup_r	wrist_flex_r	wrist_dev_r	clav_prot_l	clav_elev_l	scapula_abduction_l	scapula_elevation_l	scapula_upward_rot_l	scapula_winging_l	shoulder_elv_l	plane_of_elev_l	axial_rot_l	elbow_flexion_l	pro_sup_l	wrist_flex_l	wrist_dev_l
      3.90000000	     37.44309735	      4.23487199	      9.23032289	    -59.41107842	    789.90839987	      0.50117498	     15.55107290	     41.83215746	     45.00000000	     42.79001244	    -22.77020276	  -1879.01867602	  -2993.53453439	    145.55243890	   -160.51039522	      9.03509185	     30.63886359	     16.74730724	     12.80051095	      5.36936883	    -45.00000000	    -45.00000000	     45.00000000	     -7.11303123	   2966.05986092	  -1902.44468252	    137.86735970	    179.99999979	   -356.98375655	     30.80383737	     10.38395371	    -18.54150587
      3.91000000	     37.35355037	      4.13857746	      9.30375748	    -58.95891541	    790.74795436	      0.73324858	     15.34870573	     41.12232508	     45.00000000	     42.57887779	    -22.46923144	  -1879.21289211	  -2993.57869802	    145.61505274	   -160.01002339	      9.00381194	     29.61308350	     16.89028872	     13.25600482	      5.42638584	    -45.00000000	    -45.00000000	     45.00000000	     -6.95534405	   2966.00231264	  -1902.30412352	    137.84364220	    179.99999979	   -356.95814099	     30.31354917	     10.50538532	    -18.52785886
      3.92000000	     37.43229205	      3.80313309	      9.24848363	    -58.84092229	    791.65848252	      0.97253600	     15.12168110	     41.37428207	     45.00000000	     42.72494878	    -22.17120824	  -1879.25751382	  -2993.65963707	    145.55528735	   -159.48020291	      9.05674183	     28.71394309	     16.68519043	     12.96855867	      5.28566699	    -45.00000000	    -45.00000000	     45.00000000	     -6.49372739	   2966.09836643	  -1902.30338136	    137.80816494	    179.99999979	   -357.08461387	     29.78646172	     10.45211067	    -18.52714150
      3.93000000	     37.41039972	      3.51381998	      9.15112441	    -59.04289725	    792.61043315	      1.21295689	     15.05597578	     41.17703900	     45.00000000	     42.65897062	    -21.73542323	  -1879.39455505	  -2993.64597684	    145.59836985	   -159.00417549	      9.08088674	     27.92620292	     16.73029679	     13.05466320	      5.13060800	    -45.00000000	    -45.00000000	     45.00000000	     -6.04732636	   2966.10776710	  -1902.12991742	    137.79248615	    179.99999979	   -357.12362318	     29.20880666	     10.51121820	    -18.52708209
      3.94000000	     37.47097946	      3.23828282	      9.11272156	    -59.55120603	    793.58451599	      1.45089707	     14.82268253	     41.29855324	     45.00000000	     42.74183979	    -21.48212261	  -1879.54951896	  -2993.60413179	    145.58260449	   -158.55117053	      9.18072582	     27.18497854	     16.65987358	     12.89168684	      4.99340811	    -45.00000000	    -45.00000000	     45.00000000	     -5.57434941	   2966.29798825	  -1902.07993998	    137.76107037	    179.99999979	   -357.10631834	     28.52659228	     10.50982896	    -18.55476123
      3.95000000	     37.77324792	      3.05477990	      9.09442862	    -60.35669969	    794.57115710	      1.68489174	     15.01186099	     42.61407176	     45.00000000	     43.53047763	    -21.96522422	  -1879.26236480	  -2993.46973113	    145.65922415	   -158.45001709	      9.48006518	     25.98947631	     16.59162127	     12.66612892	      4.91774108	    -45.00000000	    -45.00000000	     45.00000000	     -5.67889821	   2966.37882264	  -1902.26767967	    137.87334541	    179.99999979	   -356.68064371	     27.37487851	     10.49162474	    -18.54191475
      3.96000000	     37.83704603	      2.86736032	      9.13172977	    -61.44651463	    795.56189930	      1.91171941	     14.93971850	     42.65858892	     45.00000000	     43.68278459	    -22.00124723	  -1879.36451804	  -2993.27726981	    145.62392090	   -158.43982120	      9.59156108	     25.00706412	     16.60086248	     12.64307575	      4.82861574	    -45.00000000	    -45.00000000	     45.00000000	     -5.36562320	   2966.52952914	  -1902.12052204	    137.82037772	    179.99999979	   -356.60266633	     26.25006805	     10.55266047	    -18.56439660
      3.97000000	     37.90630321	      2.66419635	      9.15223057	    -62.82061288	    796.56441814	      2.13116054	     14.96046552	     42.84258368	     45.00000000	     43.92699236	    -22.10841801	  -1879.47769644	  -2993.14869293	    145.60236429	   -158.44453637	      9.76323787	     24.12422281	     16.62904535	     12.54694840	      4.75597766	    -45.00000000	    -45.00000000	     45.00000000	     -5.16260700	   2966.74854706	  -1902.02032760	    137.78674632	    179.99999979	   -356.39646728	     25.10553619	     10.58389217	    -18.61604159
      3.98000000	     37.98070765	      2.46642080	      9.16813720	    -64.46897441	    797.58294607	      2.33754946	     14.82161469	     42.95200964	     45.00000000	     44.18202356	    -22.13451532	  -1879.60596001	  -2992.99936510	    145.63798176	   -158.41538584	      9.96725694	     23.39504723	     16.71303666	     12.49874393	      4.65650203	    -45.00000000	    -45.00000000	     45.00000000	     -4.86871301	   2966.98451315	  -1901.88932028	    137.77099763	    179.99999979	   -356.13343764	     24.02019227	     10.61282835	    -18.71004650
      3.99000000	     38.10229126	      2.51279403	      9.41128445	    -66.39377635	    798.62866966	      2.52864100	     16.14448005	     43.34589758	     45.00000000	     44.74098560	    -23.29156705	  -1879.66317204	  -2992.76408814	    145.29226173	   -159.94066944	      9.91422513	     21.96883433	     16.62734905	     12.25421495	      4.88368194	    -45.00000000	    -45.00000000	     45.00000000	     -5.29641349	   2967.35431029	  -1901.71142546	    137.51789282	    179.99999979	   -355.98749550	     22.17808341	     10.59944656	    -18.63024142
      4.00000000	     38.15841432	      2.19469909	      9.29055594	    -68.56732712	    799.72153460	      2.68274961	     14.94316176	     43.37627120	     45.00000000	     44.87272998	    -22.83402156	  -1879.83616958	  -2992.61760949	    145.55965884	   -159.59381061	     10.23888678	     21.67117247	     16.87865685	     12.44225762	      4.57847984	    -45.00000000	    -45.00000000	     45.00000000	     -4.62727515	   2967.57435874	  -1901.58288522	    137.71579897	    179.99999979	   -355.65762552	     21.34668826	     10.67625898	    -18.82580026
      4.01000000	     38.17493028	      2.06915796	      9.27962913	    -71.00315116	    800.86986299	      2.80809787	     14.99951962	     43.52000710	     45.00000000	     45.00000000	    -22.81101015	  -1880.12674278	  -2992.46633815	    145.61213318	   -159.83493369	     10.35281001	     21.31394887	     17.03546031	     12.36791723	      4.54448009	    -45.00000000	    -45.00000000	     45.00000000	     -4.42179128	   2967.85567612	  -1901.32303855	    137.64589455	    179.99999979	   -355.44479945	     20.45554400	     10.62237984	    -18.93258995
